<svg width="59" height="39" viewBox="0 0 59 39" fill="none" xmlns="http://www.w3.org/2000/svg">
<g id="Frame" clip-path="url(#clip0_110_70)">
<g id="Group">
<path id="Vector" d="M38.104 9.75H47.8636C48.6748 9.75 49.4369 10.1522 49.8917 10.8103L54.0832 18.2812H55.3123C56.689 18.2812 57.7707 19.1831 57.7707 20.9747V29.25C57.7707 30.5906 56.6644 31.6875 55.3123 31.6875H52.854" stroke="white" stroke-width="2" stroke-miterlimit="10"/>
<path id="Vector_2" d="M17.2085 1.21875H38.1043V31.6875H19.6668" stroke="white" stroke-width="2" stroke-miterlimit="10"/>
<path id="Vector_3" d="M9.83333 31.6875H3.6875" stroke="white" stroke-width="2" stroke-miterlimit="10"/>
<path id="Vector_4" d="M52.8545 32.9185C52.8545 35.5997 50.6543 37.7813 47.9255 37.7813C45.2091 37.7813 42.9966 35.5997 42.9966 32.9185C42.9966 30.2372 45.1968 28.0557 47.9255 28.0557C50.6543 28.0557 52.8545 30.225 52.8545 32.9185Z" stroke="white" stroke-width="2" stroke-miterlimit="10"/>
<path id="Vector_5" d="M19.6914 32.9185C19.6914 35.5997 17.4912 37.7813 14.7625 37.7813C12.0337 37.7813 9.8335 35.5997 9.8335 32.9185C9.8335 30.2372 12.0337 28.0557 14.7625 28.0557C17.4912 28.0557 19.6914 30.225 19.6914 32.9185Z" stroke="white" stroke-width="2" stroke-miterlimit="10"/>
<path id="Vector_6" d="M38.104 31.6875H43.0207" stroke="white" stroke-width="2" stroke-miterlimit="10"/>
<path id="Vector_7" d="M40.5625 19.5H49.1667V18.2812L46.7083 14.625" stroke="white" stroke-width="2" stroke-miterlimit="10"/>
<path id="Vector_8" d="M0 15.8438H20.8958" stroke="white" stroke-width="2" stroke-miterlimit="10"/>
<path id="Vector_9" d="M9.8335 8.53125H28.271" stroke="white" stroke-width="2" stroke-miterlimit="10"/>
<path id="Vector_10" d="M7.37484 8.53125H4.9165" stroke="white" stroke-width="2" stroke-miterlimit="10"/>
<path id="Vector_11" d="M14.7498 1.21875H12.2915" stroke="white" stroke-width="2" stroke-miterlimit="10"/>
</g>
</g>
<defs>
<clipPath id="clip0_110_70">
<rect width="59" height="39" fill="white"/>
</clipPath>
</defs>
</svg>
